<svg width="73" height="24" viewBox="0 0 73 24" fill="none" xmlns="http://www.w3.org/2000/svg">
<g clip-path="url(#clip0_12_211)">
<path d="M8.06132 0C4.18687 0 1.15148 2.29505 1.15148 5.65126C1.15148 12.9313 11.5656 9.7478 11.5656 13.5482C11.5656 14.9055 10.1343 15.7446 8.28342 15.7446C5.8403 15.7446 4.26091 14.3379 4.26091 12.0182L0.707275 13.6469C1.32423 17.1758 4.53237 19.0021 8.28342 19.0021C12.2319 19.0021 15.3906 17.0031 15.3906 13.4248C15.3906 6.02143 4.97657 9.27892 4.97657 5.3798C4.97657 4.07186 6.25982 3.2575 8.06132 3.2575C10.3316 3.2575 11.7877 4.66414 11.7877 6.63838L15.1686 5.1577C14.675 2.27037 12.0838 0 8.06132 0Z" fill="#49486C"/>
<path d="M24.6212 5.30579C22.8937 5.30579 21.5611 5.94741 20.6234 6.93453V5.79934H16.9957V23.9377H20.6234V14.8068L21.5611 18.2124C22.4002 18.7553 23.338 19.0021 24.5965 19.0021C28.3722 19.0021 31.0868 16.1148 31.0868 12.2156C31.0868 8.24247 28.397 5.30579 24.6212 5.30579ZM23.8809 15.7199C22.1534 15.7199 20.4999 14.4366 20.4999 12.2156C20.4999 9.92054 22.1534 8.58796 23.8809 8.58796C25.7317 8.58796 27.3111 9.96993 27.3111 12.2156C27.3111 14.3873 25.7317 15.7199 23.8809 15.7199Z" fill="#49486C"/>
<path d="M39.0106 5.30579C34.914 5.30579 31.928 8.16843 31.928 12.1663C31.928 16.1394 34.914 19.0021 39.0106 19.0021C43.1071 19.0021 46.0931 16.1394 46.0931 12.1663C46.0931 8.16843 43.1071 5.30579 39.0106 5.30579ZM39.0106 8.63731C40.8862 8.63731 42.3174 9.96993 42.3174 12.1663C42.3174 14.3379 40.8862 15.6705 39.0106 15.6705C37.1351 15.6705 35.7037 14.3379 35.7037 12.1663C35.7037 9.96993 37.1351 8.63731 39.0106 8.63731Z" fill="#49486C"/>
<path d="M60.5964 5.7993H55.7101L52.4032 9.05679L51.3668 13.6222V0.49353H47.7391V18.6318H51.3668V14.7081L52.4279 13.6963L56.1296 18.6318H60.5964L54.9945 11.2284L60.5964 5.7993Z" fill="#49486C"/>
<path d="M72.8226 11.9441C72.8226 8.02036 70.4041 5.30579 66.7271 5.30579C62.8773 5.30579 60.1381 8.21778 60.1381 12.2649C60.1381 16.1888 62.6552 19.0021 66.8751 19.0021C69.3183 19.0021 71.3419 18.1384 72.6498 16.3862L70.108 14.0418C69.4664 15.4238 68.5286 16.0407 66.9985 16.0407C65.4192 16.0407 64.2839 15.3497 63.9878 13.3015H72.7238C72.7978 12.7586 72.8226 12.3884 72.8226 11.9441ZM66.6283 8.26715C68.2077 8.26715 68.9975 9.32833 68.9727 10.8337H64.0125C64.3086 9.03216 65.2957 8.26715 66.6283 8.26715Z" fill="#49486C"/>
</g>
<defs>
<clipPath id="clip0_12_211">
<rect width="72.1853" height="24" fill="white" transform="translate(0.707275)"/>
</clipPath>
</defs>
</svg>
