<svg width="145" height="32" viewBox="0 0 145 32" fill="none" xmlns="http://www.w3.org/2000/svg">
<g clip-path="url(#clip0_1440_19825)">
<path d="M0.568359 0L12.7218 32H14.9599L2.8064 0H0.568359Z" fill="#98A2B3"/>
<path d="M26.5016 16.0034C27.2261 16.2451 27.8898 16.4919 28.4928 16.744C29.0574 16.9741 29.5886 17.2785 30.0726 17.6491C30.5127 17.9887 30.8724 18.4213 31.126 18.9161C31.3907 19.4653 31.5206 20.0698 31.5047 20.6794V20.712C31.5424 21.4483 31.4124 22.1836 31.1245 22.8624C30.8366 23.5411 30.3983 24.1457 29.8427 24.6304C28.7342 25.5734 27.1817 26.0451 25.1851 26.0456C23.9281 26.0442 22.6808 25.8253 21.4985 25.3984C20.2811 24.961 19.1378 24.3397 18.1085 23.5561L18.0752 23.5228L18.1085 23.4895L20.3465 19.9564L20.3798 19.9891C21.0076 20.6702 21.7696 21.2139 22.6179 21.5858C23.4593 21.9493 24.3671 22.1341 25.2837 22.1285C26.5781 22.1285 27.2255 21.7125 27.2259 20.8805C27.2248 20.6866 27.1643 20.4977 27.0524 20.3393C26.9405 20.1809 26.7827 20.0607 26.6003 19.9949C26.1204 19.7738 25.6254 19.587 25.1191 19.4359C25.0187 19.3958 24.9136 19.3684 24.8063 19.3543C24.6989 19.3416 24.5938 19.3139 24.4941 19.272C23.8359 19.0979 23.1776 18.9065 22.5193 18.698C21.8877 18.5032 21.2886 18.2155 20.7416 17.8444C20.2146 17.4818 19.7714 17.0103 19.4421 16.4619C19.0773 15.8057 18.9008 15.0615 18.932 14.3114V14.246C18.923 13.523 19.0689 12.8065 19.3598 12.1445C19.6412 11.515 20.0569 10.9546 20.5777 10.5027C21.1372 10.0244 21.786 9.66186 22.4866 9.43625C23.2833 9.17621 24.1172 9.04847 24.9552 9.05813C26.0369 9.06246 27.1123 9.22326 28.148 9.53551C29.211 9.84857 30.2206 10.3202 31.143 10.9344V10.9997L29.1354 14.6529L29.1028 14.6202C28.5663 14.0954 27.9277 13.6864 27.2265 13.4186C26.472 13.1211 25.6676 12.9704 24.8566 12.9745C24.6806 12.9759 24.5049 12.987 24.3302 13.0078C24.1403 13.0271 23.9558 13.0828 23.7869 13.1718C23.6266 13.2562 23.4863 13.374 23.3754 13.5172C23.2549 13.6966 23.197 13.9108 23.2109 14.1265C23.2135 14.2304 23.2381 14.3326 23.2831 14.4263C23.3282 14.5199 23.3926 14.603 23.4721 14.6699C23.6752 14.8531 23.9021 15.008 24.1467 15.1303C24.4462 15.2846 24.7541 15.4222 25.0688 15.5424C25.4084 15.673 25.743 15.7936 26.0726 15.9042C26.1449 15.9053 26.2168 15.9163 26.2861 15.9368C26.3632 15.959 26.4344 15.9812 26.5003 16.0021" fill="#98A2B3"/>
<path d="M33.1494 9.32211H37.5249V25.7793H33.1494V9.32211ZM33.1494 2.73926H37.5249V6.59232H33.1494V2.73926Z" fill="#98A2B3"/>
<path d="M46.4466 12.1523H51.2852V15.8042H48.4548L46.4466 12.1523ZM51.2852 2.73843V6.59149H47.6973C47.4399 6.57969 47.1839 6.63393 46.9534 6.74904C46.723 6.86415 46.5258 7.0363 46.3807 7.24912C46.0454 7.79115 45.8847 8.42306 45.9203 9.05941V25.7778H41.5448V15.8042H39.1729V12.1523H41.5428V8.86088C41.5388 8.04668 41.701 7.24022 42.0195 6.49092C42.6413 5.01318 43.8169 3.83758 45.2946 3.21581C46.0548 2.89515 46.8723 2.73272 47.6973 2.73843H51.2852Z" fill="#98A2B3"/>
<path d="M64.3847 11.0363V14.6896H61.9495L59.9087 11.0363H64.3847ZM59.349 20.1505C59.3449 20.3905 59.3911 20.6286 59.4847 20.8497C59.5783 21.0707 59.7171 21.2697 59.8923 21.4337C60.0626 21.6041 60.2654 21.7385 60.4887 21.8291C60.7119 21.9196 60.9511 21.9644 61.1919 21.9607H64.3847V25.7785H61.1919C60.3626 25.7834 59.5408 25.6211 58.7756 25.3012C58.036 24.9964 57.3636 24.549 56.7968 23.9846C56.2341 23.4204 55.782 22.7559 55.4639 22.0254C55.1322 21.2682 54.964 20.4495 54.9702 19.6228V14.6856H52.6016V11.0363H54.9715V5.0752H59.347L59.349 20.1505Z" fill="#98A2B3"/>
<path d="M73.4362 9.05812C74.5683 9.052 75.6893 9.28198 76.7276 9.73338C78.7616 10.6042 80.3822 12.2246 81.2533 14.2584C81.7065 15.3079 81.9362 16.4401 81.928 17.5832C81.9301 18.2028 81.8644 18.8208 81.732 19.4261L81.6987 19.4914H73.3395L71.2295 16.1347H77.4832C77.1989 15.2476 76.6679 14.4598 75.9524 13.8633C75.2475 13.274 74.3536 12.9586 73.4349 12.9752C72.8556 12.9722 72.2827 13.0954 71.7559 13.3363C71.2424 13.5674 70.7787 13.8958 70.3903 14.3035C69.9976 14.7212 69.6902 15.2114 69.4852 15.7468C69.2623 16.3274 69.1515 16.945 69.1586 17.5669C69.1641 18.0995 69.2645 18.627 69.4551 19.1244C69.6509 19.6581 69.9406 20.1524 70.3106 20.584C70.6915 21.0274 71.1484 21.3994 71.6599 21.6824C72.2039 21.982 72.8166 22.1346 73.4375 22.1252C73.9915 22.1317 74.5428 22.0483 75.0702 21.8784C75.6361 21.6586 76.1233 21.2745 76.469 20.7753L76.5017 20.7427L76.567 20.7753L80.3848 22.457L80.3195 22.5223C79.5424 23.6184 78.5085 24.5072 77.3082 25.111C76.1119 25.7257 74.7857 26.0446 73.4408 26.041C72.2941 26.0484 71.1577 25.8243 70.0997 25.382C69.0848 24.9621 68.1622 24.3471 67.3843 23.5718C66.6096 22.7959 65.9892 21.8803 65.5557 20.8733C65.1044 19.835 64.8746 18.714 64.8811 17.5819C64.8726 16.4388 65.1023 15.3065 65.5557 14.2571C66.4268 12.2177 68.055 10.5956 70.0977 9.73208C71.1531 9.27933 72.2905 9.04944 73.4388 9.05681" fill="#98A2B3"/>
<path d="M101.282 2.73828V25.7783H96.8709L96.9042 17.5171C96.9066 16.915 96.7773 16.3196 96.5254 15.7727C96.2842 15.2405 95.9498 14.7558 95.538 14.3412C95.1237 13.9297 94.6315 13.6048 94.0902 13.3858C93.5207 13.1538 92.9111 13.0364 92.2962 13.0403C91.6865 13.0353 91.082 13.1528 90.5186 13.3858C89.9807 13.6094 89.4937 13.9398 89.0871 14.3569C88.6787 14.7772 88.3497 15.2679 88.116 15.8054C87.8772 16.3675 87.7542 16.972 87.7542 17.5827C87.7542 18.1934 87.8772 18.7979 88.116 19.36C88.58 20.4387 89.4398 21.2986 90.5186 21.7626C91.079 22.0071 91.6848 22.1306 92.2962 22.1251C92.6045 22.1254 92.9125 22.1036 93.2177 22.0597C93.5151 22.0196 93.8041 21.9314 94.0732 21.7985H94.1385L95.7515 24.7608L95.7182 24.7935C94.5824 25.6478 93.1891 26.0892 91.7685 26.0447C90.6512 26.0515 89.5437 25.8367 88.5098 25.4129C87.476 24.9891 86.5364 24.3646 85.7453 23.5755C84.9707 22.7997 84.3502 21.884 83.9168 20.8771C83.4717 19.8368 83.2422 18.7171 83.2422 17.5856C83.2422 16.4542 83.4717 15.3344 83.9168 14.2942C84.3504 13.2871 84.9708 12.3713 85.7453 11.5951C86.5363 10.806 87.4759 10.1815 88.5098 9.75775C89.5436 9.33403 90.6512 9.11948 91.7685 9.12653C92.7661 9.07568 93.7602 9.27841 94.6582 9.7158C95.5561 10.1532 96.3286 10.811 96.9036 11.6278V2.73828H101.282Z" fill="#98A2B3"/>
<path d="M117.864 0L105.711 32H107.949L120.103 0H117.864Z" fill="#98A2B3"/>
<path d="M126.74 2.86033C126.651 2.85 126.561 2.86257 126.478 2.89686C126.395 2.93115 126.323 2.98601 126.267 3.05624C126.167 3.24205 126.122 3.45242 126.136 3.66294V3.67861C126.124 3.88853 126.169 4.09785 126.267 4.284C126.321 4.35839 126.394 4.41696 126.479 4.45369C126.563 4.49042 126.656 4.50398 126.748 4.49298C126.831 4.49838 126.915 4.48174 126.99 4.44473C127.066 4.40772 127.13 4.35163 127.177 4.28204C127.282 4.09641 127.332 3.88398 127.318 3.67077C127.318 3.13047 127.126 2.86033 126.74 2.86033ZM126.137 1.71094V2.44955C126.137 2.54033 126.137 2.62457 126.131 2.70294C126.125 2.7813 126.122 2.84335 126.117 2.88841H126.137C126.202 2.7945 126.288 2.71677 126.388 2.66114C126.561 2.57685 126.756 2.5494 126.945 2.58272C127.134 2.61605 127.307 2.70843 127.44 2.84661C127.618 3.08451 127.704 3.37857 127.682 3.67469C127.704 3.97192 127.617 4.26698 127.439 4.50539C127.306 4.64425 127.133 4.73729 126.944 4.771C126.755 4.8047 126.561 4.77732 126.388 4.69281C126.29 4.63857 126.204 4.56373 126.137 4.47339H126.109L126.037 4.74506H125.786V1.71094H126.137Z" fill="#98A2B3"/>
<path d="M129.471 3.69897L129.156 3.71072C128.963 3.70351 128.772 3.74865 128.603 3.84134C128.553 3.87685 128.513 3.92433 128.486 3.97943C128.459 4.03453 128.446 4.0955 128.449 4.15676C128.445 4.2059 128.453 4.25525 128.472 4.3007C128.491 4.34614 128.521 4.38636 128.559 4.41799C128.64 4.47682 128.74 4.50649 128.84 4.50223C129.003 4.5076 129.163 4.4543 129.289 4.35203C129.352 4.29457 129.401 4.22356 129.433 4.14436C129.464 4.06517 129.477 3.97986 129.471 3.89489V3.69897ZM129.052 2.56917C129.259 2.55224 129.466 2.6135 129.63 2.74093C129.698 2.81368 129.75 2.89997 129.783 2.99416C129.815 3.08835 129.827 3.18832 129.818 3.28754V4.74517H129.563L129.498 4.4415H129.481C129.402 4.54767 129.301 4.63655 129.186 4.70272C129.054 4.76436 128.909 4.79304 128.763 4.78631C128.589 4.79282 128.418 4.7383 128.28 4.63219C128.213 4.57238 128.161 4.49783 128.128 4.41441C128.094 4.331 128.081 4.241 128.088 4.15154C128.084 4.05467 128.105 3.95839 128.149 3.87202C128.194 3.78565 128.259 3.7121 128.34 3.65848C128.575 3.5244 128.844 3.4588 129.114 3.46909L129.478 3.45668V3.33064C129.485 3.26418 129.478 3.19692 129.459 3.13308C129.439 3.06924 129.406 3.01021 129.362 2.9597C129.27 2.88593 129.153 2.84894 129.035 2.85587C128.927 2.85547 128.82 2.87245 128.717 2.90615C128.62 2.93767 128.525 2.97563 128.433 3.01978L128.325 2.75856C128.43 2.70301 128.542 2.65921 128.657 2.62795C128.787 2.59159 128.921 2.57335 129.056 2.57374" fill="#98A2B3"/>
<path d="M131.339 4.78535C131.163 4.78896 130.989 4.74927 130.832 4.66976C130.682 4.58915 130.561 4.46323 130.487 4.30992C130.396 4.11551 130.353 3.9021 130.361 3.68755C130.352 3.46596 130.397 3.24553 130.492 3.04494C130.569 2.88893 130.694 2.76156 130.849 2.68119C131.009 2.60216 131.186 2.56253 131.364 2.56559C131.469 2.56567 131.574 2.57705 131.677 2.59955C131.763 2.61695 131.847 2.64435 131.926 2.68119L131.819 2.97311C131.745 2.94716 131.671 2.92535 131.595 2.9078C131.517 2.88728 131.436 2.87653 131.356 2.8758C130.935 2.8758 130.725 3.14595 130.725 3.68625C130.712 3.89523 130.766 4.10305 130.879 4.27923C130.932 4.3483 131.002 4.40317 131.082 4.43904C131.161 4.4749 131.249 4.49066 131.336 4.48494C131.439 4.48604 131.543 4.47397 131.643 4.44902C131.728 4.42692 131.811 4.39742 131.89 4.36086V4.66976C131.815 4.70826 131.736 4.73701 131.653 4.75531C131.55 4.77707 131.445 4.78714 131.34 4.78535" fill="#98A2B3"/>
<path d="M132.744 1.71094V3.29592C132.744 3.33837 132.744 3.39453 132.738 3.46375C132.732 3.53298 132.731 3.59437 132.728 3.64269H132.744C132.76 3.62179 132.784 3.5911 132.816 3.55126L132.914 3.42914C132.947 3.388 132.976 3.35469 132.999 3.32726L133.683 2.60498H134.093L133.227 3.51926L134.153 4.74506H133.728L132.985 3.74653L132.741 3.95812V4.74506H132.394V1.71094H132.744Z" fill="#98A2B3"/>
<path d="M135.351 2.8521C135.277 2.84843 135.203 2.86103 135.134 2.88901C135.066 2.917 135.004 2.95968 134.954 3.01406C134.849 3.14096 134.788 3.2987 134.78 3.46337H135.87C135.873 3.30622 135.828 3.15192 135.74 3.0219C135.693 2.96349 135.633 2.91742 135.565 2.8878C135.497 2.85817 135.422 2.84591 135.348 2.8521M135.352 2.56475C135.517 2.56046 135.68 2.60206 135.822 2.68492C135.955 2.76455 136.062 2.88182 136.128 3.0219C136.202 3.1812 136.238 3.35521 136.234 3.53063V3.74222H134.772C134.763 3.9433 134.829 4.14062 134.958 4.29537C135.022 4.36037 135.1 4.41088 135.186 4.44353C135.272 4.47618 135.363 4.49023 135.455 4.48475C135.576 4.48641 135.697 4.4737 135.816 4.44688C135.928 4.42002 136.037 4.38331 136.142 4.33716V4.64475C136.037 4.69096 135.928 4.72641 135.816 4.75055C135.691 4.7747 135.564 4.78607 135.436 4.78451C135.249 4.78874 135.064 4.74608 134.898 4.66043C134.743 4.5775 134.617 4.44951 134.537 4.29341C134.444 4.10632 134.399 3.89925 134.406 3.69063C134.4 3.48344 134.441 3.27757 134.524 3.08786C134.594 2.92928 134.71 2.79469 134.855 2.70059C135.004 2.6084 135.177 2.56123 135.352 2.56475" fill="#98A2B3"/>
<path d="M137.595 4.49363C137.683 4.5031 137.773 4.4912 137.856 4.45893C137.939 4.42666 138.013 4.37496 138.072 4.30816C138.175 4.14019 138.223 3.94399 138.209 3.74718V3.68188C138.222 3.46961 138.177 3.25782 138.079 3.0693C138.024 2.99334 137.95 2.93345 137.864 2.89589C137.779 2.85832 137.684 2.84446 137.592 2.85575C137.507 2.85133 137.423 2.86994 137.348 2.90962C137.273 2.9493 137.21 3.00855 137.166 3.08106C137.064 3.26545 137.015 3.47494 137.025 3.68579C137.013 3.8937 137.062 4.10054 137.166 4.28073C137.213 4.3504 137.278 4.40657 137.353 4.44369C137.428 4.48081 137.512 4.49757 137.596 4.49233M137.54 4.78359C137.419 4.78849 137.299 4.76613 137.189 4.71819C137.078 4.67024 136.98 4.59795 136.901 4.50669C136.725 4.26801 136.64 3.97398 136.662 3.67796C136.64 3.38044 136.726 3.08501 136.903 2.8453C137.034 2.70611 137.206 2.6126 137.394 2.57851C137.583 2.54442 137.777 2.57155 137.948 2.65592C138.048 2.71261 138.135 2.78852 138.205 2.87926H138.23C138.224 2.84465 138.218 2.79371 138.213 2.72579C138.208 2.65788 138.205 2.60367 138.205 2.56384V1.71094H138.557V4.74506H138.273L138.221 4.45771H138.205C138.137 4.55202 138.05 4.63082 137.949 4.6889C137.824 4.75784 137.682 4.79104 137.539 4.7849" fill="#98A2B3"/>
<path d="M141.228 2.86033C141.139 2.85 141.048 2.86257 140.966 2.89686C140.883 2.93115 140.81 2.98601 140.755 3.05624C140.655 3.24205 140.609 3.45242 140.624 3.66294V3.67861C140.612 3.88853 140.657 4.09785 140.755 4.284C140.809 4.35839 140.882 4.41696 140.967 4.45369C141.051 4.49042 141.144 4.50398 141.235 4.49298C141.319 4.49838 141.403 4.48174 141.478 4.44473C141.553 4.40772 141.618 4.35163 141.664 4.28204C141.77 4.09649 141.82 3.88405 141.807 3.67077C141.807 3.13047 141.614 2.86033 141.228 2.86033ZM140.625 1.71094V2.44955C140.625 2.54033 140.625 2.62457 140.619 2.70294C140.613 2.7813 140.61 2.84335 140.605 2.88841H140.625C140.69 2.7945 140.776 2.71677 140.876 2.66114C141.049 2.57685 141.243 2.5494 141.432 2.58272C141.621 2.61605 141.795 2.70843 141.928 2.84661C142.106 3.08451 142.192 3.37857 142.17 3.67469C142.192 3.97192 142.105 4.26698 141.926 4.50539C141.847 4.59671 141.749 4.66922 141.639 4.71759C141.528 4.76596 141.408 4.78896 141.288 4.7849C141.145 4.79076 141.003 4.75901 140.876 4.69281C140.778 4.63857 140.692 4.56373 140.625 4.47339H140.597L140.525 4.74506H140.273V1.71094H140.625Z" fill="#98A2B3"/>
<path d="M142.313 2.60482H142.689L143.152 3.82278C143.192 3.93162 143.228 4.03394 143.26 4.12972C143.29 4.21983 143.314 4.31191 143.332 4.40531H143.347C143.364 4.34001 143.389 4.25184 143.424 4.14409C143.458 4.03633 143.494 3.92792 143.531 3.81756L143.966 2.60352H144.345L143.424 5.03878C143.36 5.21816 143.261 5.38265 143.132 5.52205C143.067 5.5837 142.991 5.63145 142.907 5.66234C142.823 5.69323 142.734 5.70661 142.645 5.70164C142.589 5.70211 142.533 5.69883 142.477 5.69184C142.429 5.68466 142.388 5.67747 142.353 5.66964V5.39143C142.383 5.39666 142.419 5.40188 142.459 5.40776C142.502 5.41257 142.546 5.41496 142.59 5.41494C142.698 5.4199 142.803 5.38293 142.885 5.31176C142.965 5.23454 143.026 5.14034 143.065 5.03617L143.177 4.75274L142.313 2.60482Z" fill="#98A2B3"/>
<path d="M144.651 6.78516H125.395V26.0433H144.651V6.78516Z" fill="#98A2B3"/>
<path d="M130.369 9.88992V13.4752H131.424C132.566 13.4752 132.624 13.2871 132.711 12.3911H133.044V15.008H132.711C132.624 14.1113 132.566 13.9376 131.424 13.9376H130.369V17.0449C130.369 17.6809 130.542 17.8285 131.713 17.8285V18.2204H127.593V17.8285C128.446 17.8285 128.75 17.7854 128.75 17.0919V10.5835C128.75 9.88992 128.446 9.84616 127.593 9.84616V9.45433H133.072C133.484 9.47032 133.895 9.44604 134.302 9.38184V12.0855H133.94C133.752 10.206 133.376 9.88796 131.699 9.88796L130.369 9.88992Z" fill="#98A2B3"/>
<path d="M141.785 9.45628C142.196 9.47228 142.608 9.448 143.014 9.38379V12.0875H142.652C142.465 10.208 142.088 9.88991 140.411 9.88991H139.949V17.0449C139.949 17.7247 140.21 17.8285 141.293 17.8285V18.2204H136.97V17.8285C138.055 17.8285 138.329 17.7273 138.329 17.0449V9.88991H137.867C136.19 9.88991 135.814 10.208 135.626 12.0875H135.265V9.38379C135.671 9.44803 136.083 9.47231 136.494 9.45628H141.785Z" fill="#98A2B3"/>
</g>
<defs>
<clipPath id="clip0_1440_19825">
<rect width="144.082" height="32" fill="white" transform="translate(0.568359)"/>
</clipPath>
</defs>
</svg>
