<svg width="44" height="32" viewBox="0 0 44 32" fill="none" xmlns="http://www.w3.org/2000/svg">
<g clip-path="url(#clip0_1440_19849)">
<path d="M43.4128 13.6417V12.4113C42.8036 12.2111 42.1533 12.0999 41.4774 12.0999C40.7929 12.0999 40.1341 12.2145 39.518 12.4199V13.6571C40.1204 13.4004 40.7809 13.2532 41.4774 13.2532C42.1619 13.2532 42.8156 13.3918 43.4128 13.6417ZM43.4128 15.3906V14.6564C42.8344 14.3484 42.1756 14.1722 41.4774 14.1722C40.7672 14.1722 40.1016 14.3535 39.518 14.6701V15.4042C40.0776 15.0243 40.7518 14.8019 41.4774 14.8019C42.1927 14.8036 42.8584 15.0209 43.4128 15.3906ZM41.4774 11.5728C40.7963 11.5728 40.1392 11.6755 39.518 11.8654V9.93002C39.518 9.26948 39.3829 8.78349 39.1142 8.47205C38.8455 8.1606 38.3886 8.00488 37.7435 8.00488C36.9444 8.00488 36.3796 8.25814 36.0494 8.76467V17.7076H32.1649V0.00488281H36.0494V6.57429C36.8793 5.52873 37.9386 5.00681 39.2306 5.00681C40.6047 5.00681 41.6434 5.41408 42.3416 6.22863C43.0415 7.04317 43.3974 8.24617 43.4128 9.8359V11.8569C42.7985 11.6738 42.1499 11.5728 41.4774 11.5728ZM26.3091 14.9439C26.8549 14.9439 27.2759 14.7968 27.5771 14.5007C27.8765 14.2047 28.022 13.7923 28.0152 13.2618H31.6567C31.6567 14.6291 31.1672 15.7516 30.1867 16.6261C29.2079 17.5022 27.945 17.9403 26.4015 17.9403C24.5876 17.9403 23.1587 17.3722 22.1131 16.2342C21.0676 15.0962 20.5456 13.5219 20.5456 11.5095V11.3486C20.5456 10.0892 20.7784 8.97686 21.2438 8.01173C21.7093 7.0483 22.3784 6.30563 23.2545 5.78713C24.1307 5.26863 25.1677 5.00852 26.3655 5.00852C27.9861 5.00852 29.2729 5.45857 30.2261 6.35697C31.1792 7.25536 31.6549 8.47376 31.6549 10.0104H28.0134C28.0134 9.36531 27.856 8.86905 27.5411 8.52338C27.2263 8.17772 26.8036 8.00488 26.2731 8.00488C25.2669 8.00488 24.6783 8.64659 24.5106 9.93002C24.4558 10.3373 24.4301 10.8986 24.4301 11.6122C24.4301 12.8648 24.579 13.7324 24.8802 14.2166C25.1796 14.7009 25.6554 14.9439 26.3091 14.9439ZM14.3544 8.00488C13.2164 8.00488 12.5405 8.75782 12.3266 10.2637H16.2453V9.96424C16.2607 9.34135 16.1033 8.8605 15.773 8.51825C15.441 8.17601 14.9687 8.00488 14.3544 8.00488ZM14.7925 17.9403C12.8793 17.9403 11.3307 17.3704 10.1482 16.2291C8.96403 15.0877 8.37366 13.604 8.37366 11.7747V11.453C8.37366 10.1781 8.60981 9.05215 9.08211 8.07675C9.55441 7.10135 10.244 6.3467 11.151 5.8128C12.0579 5.27889 13.1343 5.01194 14.3784 5.01194C16.1307 5.01194 17.5133 5.55611 18.5264 6.64274C19.5411 7.72937 20.0477 9.24552 20.0477 11.1895V12.6988H12.3266C12.4652 13.3987 12.7681 13.948 13.237 14.3467C13.7059 14.7471 14.3116 14.9456 15.0577 14.9456C16.2864 14.9456 17.2481 14.5161 17.9394 13.6554L19.714 15.7533C19.2297 16.4207 18.5435 16.9529 17.6571 17.3499C16.769 17.7418 15.8141 17.9403 14.7925 17.9403ZM6.1251 2.1405V5.24125H8.17687V7.93643H6.1251V13.6417C6.1251 14.1106 6.21067 14.4374 6.37837 14.6205C6.54778 14.8053 6.88147 14.8977 7.38115 14.8977C7.76617 14.8977 8.08788 14.8755 8.3497 14.8293V17.6066C7.64981 17.8291 6.92083 17.9403 6.15933 17.9403C4.82286 17.9403 3.83548 17.6254 3.19719 16.9957C2.5589 16.366 2.24061 15.4094 2.24061 14.126V7.93643H0.650879V5.23953H2.24061V2.13879H6.1251V2.1405Z" fill="#98A2B3"/>
<path d="M43.3922 18.2994C43.3922 17.2419 42.5332 16.3828 41.4756 16.3828C40.4181 16.3828 39.5591 17.2419 39.5591 18.2994C39.5591 19.3552 40.4181 20.216 41.4756 20.216C42.5332 20.2143 43.3922 19.3552 43.3922 18.2994ZM43.4316 21.9323V21.1965C42.8737 21.5747 42.2012 21.7954 41.4773 21.7954C40.7501 21.7954 40.0758 21.573 39.5146 21.1914V21.9272C40.0981 22.2455 40.7655 22.4269 41.4773 22.4269C42.1841 22.4252 42.8498 22.2455 43.4316 21.9323ZM43.4316 24.1809V22.9505C42.8292 23.2038 42.1704 23.3458 41.4773 23.3458C40.7809 23.3458 40.1186 23.1986 39.5146 22.9402V24.1792C40.1323 24.3862 40.7911 24.4992 41.4773 24.4992C42.1601 24.4975 42.8155 24.3862 43.4316 24.1809ZM39.5146 24.7319V27.7009C39.1364 28.3392 38.5015 28.6592 37.6083 28.6592C36.5678 28.6592 36.0476 28.1236 36.0476 27.054V18.9325H32.1546V26.9565C32.1546 28.4504 32.5071 29.6722 33.2121 30.4679C33.9171 31.2654 34.9541 31.6641 36.3265 31.6641C37.728 31.6641 38.8421 31.137 39.6652 30.0812L39.7798 31.4331H43.4316V24.7353C42.8121 24.9236 42.1567 25.0262 41.4773 25.0262C40.7946 25.0245 40.1357 24.9219 39.5146 24.7319ZM25.8521 21.7047C24.7124 21.7047 24.0348 22.4594 23.8192 23.9687H27.7481V23.6675C27.7636 23.0429 27.6061 22.5604 27.2741 22.2181C26.9422 21.8759 26.4681 21.7047 25.8521 21.7047ZM26.2919 31.6641C24.3736 31.6641 22.8215 31.0925 21.6356 29.9477C20.4498 28.8046 19.856 27.3159 19.856 25.4831V25.1597C19.856 23.8814 20.0921 22.7537 20.5661 21.7749C21.0401 20.7978 21.7315 20.0397 22.6401 19.5041C23.5488 18.9685 24.6269 18.6587 25.8761 18.6587C27.6318 18.6587 29.0179 19.2457 30.0361 20.3358C31.0525 21.4258 31.5608 22.9454 31.5608 24.8928V26.4055H23.8192C23.9578 27.1071 24.2624 27.6581 24.7313 28.0568C25.2018 28.4573 25.8093 28.6575 26.5571 28.6575C27.7892 28.6575 28.7526 28.2262 29.4457 27.3638L31.2254 29.4669C30.7394 30.1377 30.0532 30.6716 29.1633 31.0669C28.2735 31.4656 27.3169 31.6641 26.2919 31.6641Z" fill="#98A2B3"/>
</g>
<defs>
<clipPath id="clip0_1440_19849">
<rect width="42.7807" height="32" fill="white" transform="translate(0.650879)"/>
</clipPath>
</defs>
</svg>
